<svg xmlns="http://www.w3.org/2000/svg" viewBox="0 0 100 100" fill="#D36B42">
    <path fill-rule="evenodd" clip-rule="evenodd" d="M50 72C62.1503 72 72 62.1503 72 50C72 37.8497 62.1503 28 50 28C37.8497 28 28 37.8497 28 50C28 62.1503 37.8497 72 50 72ZM50 63C57.1797 63 63 57.1797 63 50C63 42.8203 57.1797 37 50 37C42.8203 37 37 42.8203 37 50C37 57.1797 42.8203 63 50 63Z" />
    <rect x="48.5" y="2" width="3" height="22" transform="rotate(0 50 50)" />
    <rect x="48.5" y="2" width="3" height="22" transform="rotate(15 50 50)" />
    <rect x="48.5" y="2" width="3" height="22" transform="rotate(30 50 50)" />
    <rect x="48.5" y="2" width="3" height="22" transform="rotate(45 50 50)" />
    <rect x="48.5" y="2" width="3" height="22" transform="rotate(60 50 50)" />
    <rect x="48.5" y="2" width="3" height="22" transform="rotate(75 50 50)" />
    <rect x="48.5" y="2" width="3" height="22" transform="rotate(90 50 50)" />
    <rect x="48.5" y="2" width="3" height="22" transform="rotate(105 50 50)" />
    <rect x="48.5" y="2" width="3" height="22" transform="rotate(120 50 50)" />
    <rect x="48.5" y="2" width="3" height="22" transform="rotate(135 50 50)" />
    <rect x="48.5" y="2" width="3" height="22" transform="rotate(150 50 50)" />
    <rect x="48.5" y="2" width="3" height="22" transform="rotate(165 50 50)" />
    <rect x="48.5" y="2" width="3" height="22" transform="rotate(180 50 50)" />
    <rect x="48.5" y="2" width="3" height="22" transform="rotate(195 50 50)" />
    <rect x="48.5" y="2" width="3" height="22" transform="rotate(210 50 50)" />
    <rect x="48.5" y="2" width="3" height="22" transform="rotate(225 50 50)" />
    <rect x="48.5" y="2" width="3" height="22" transform="rotate(240 50 50)" />
    <rect x="48.5" y="2" width="3" height="22" transform="rotate(255 50 50)" />
    <rect x="48.5" y="2" width="3" height="22" transform="rotate(270 50 50)" />
    <rect x="48.5" y="2" width="3" height="22" transform="rotate(285 50 50)" />
    <rect x="48.5" y="2" width="3" height="22" transform="rotate(300 50 50)" />
    <rect x="48.5" y="2" width="3" height="22" transform="rotate(315 50 50)" />
    <rect x="48.5" y="2" width="3" height="22" transform="rotate(330 50 50)" />
    <rect x="48.5" y="2" width="3" height="22" transform="rotate(345 50 50)" />
</svg>
